<svg version="1.1" id="Layer_1" xmlns="http://www.w3.org/2000/svg" xmlns:xlink="http://www.w3.org/1999/xlink" x="0px" y="0px"
	 width="100%" viewBox="0 0 512 512" enable-background="new 0 0 512 512" xml:space="preserve">
<path fill="#000000" opacity="1.000000" stroke="none" 
	d="
M513.000000,180.000000 
	C513.000000,289.806641 512.980713,399.113342 513.085144,508.419861 
	C513.088562,512.018066 512.514893,513.108887 508.582153,513.105957 
	C340.789886,512.982666 172.997498,512.983643 5.205227,513.105896 
	C1.479210,513.108582 0.910828,512.193359 0.912900,508.707153 
	C1.012604,340.914856 1.010902,173.122482 0.922299,5.330161 
	C0.920515,1.951425 1.335443,0.883250 5.167895,0.886257 
	C173.126785,1.018044 341.085815,1.014550 509.044739,0.900106 
	C512.556946,0.897713 513.097534,1.714344 513.090332,5.043031 
	C512.965271,63.195148 513.000000,121.347610 513.000000,180.000000 
z"/>
<path fill="#2C1F0D" opacity="1.000000" stroke="none" 
	d="
M466.540955,406.285950 
	C475.135864,402.657593 479.739990,408.364075 483.941650,413.608887 
	C505.931854,441.058411 494.822723,483.341553 459.292053,493.221222 
	C441.059357,498.291016 424.205750,494.514191 410.478119,480.898804 
	C380.899170,451.561584 351.480438,422.062256 322.086945,392.538849 
	C310.053253,380.451996 306.136719,365.638885 308.596619,349.030212 
	C308.964630,346.545654 308.468445,344.920807 306.795349,343.263031 
	C299.101105,335.639160 291.368500,328.049591 283.861115,320.244293 
	C281.663300,317.959229 280.129150,318.441681 277.948212,319.987518 
	C258.632263,333.678833 237.102005,342.137115 213.936783,346.469910 
	C198.516312,349.354126 182.994492,349.697601 167.328110,348.191101 
	C148.744568,346.404114 131.159485,341.526642 114.256683,333.696198 
	C88.825470,321.914886 67.891670,304.692474 51.172947,282.288116 
	C34.320759,259.704926 24.114723,234.281006 20.233007,206.490372 
	C17.195395,184.742996 18.739416,163.082642 24.017658,141.722015 
	C25.206833,136.909531 28.056141,134.241180 33.445259,133.999481 
	C38.961544,135.320892 41.185467,138.490936 40.328804,143.886505 
	C39.571949,148.653442 38.266239,153.327332 37.484348,158.095688 
	C29.847523,204.669235 41.405430,245.988556 72.031433,281.779266 
	C96.750793,310.667236 128.574738,327.071381 166.038284,331.744141 
	C207.997421,336.977570 245.791946,325.604401 278.453979,298.976074 
	C309.996643,273.260315 328.056000,239.584671 332.050659,199.048065 
	C336.877258,150.068649 320.648041,108.389854 285.141144,74.680824 
	C261.211731,51.963097 232.206024,39.089314 199.247864,35.891846 
	C154.185654,31.520088 115.128983,45.500877 81.797493,75.688164 
	C69.994003,86.378204 60.539074,99.104691 53.037388,113.210258 
	C51.942719,115.268593 51.066921,117.493729 49.395393,119.156738 
	C46.514805,122.022644 43.334194,123.941032 39.112686,120.966141 
	C34.541367,117.450203 34.025688,113.611900 36.537804,108.883530 
	C52.815704,78.244751 75.859039,54.394764 106.662605,38.109432 
	C124.204620,28.835253 142.713013,22.606873 162.360809,20.220997 
	C194.067825,16.370747 224.591049,20.796698 253.703201,34.317165 
	C274.052216,43.767815 291.795837,56.771980 306.775238,73.375580 
	C326.927551,95.712944 339.694366,121.889648 345.993011,151.278671 
	C349.118225,165.860641 349.786346,180.660507 348.852997,195.417725 
	C347.661560,214.255249 343.142944,232.436111 335.623901,249.843704 
	C331.318207,259.811920 326.080383,269.229095 319.872589,278.099701 
	C318.212463,280.471924 318.270325,281.934082 320.389160,283.986389 
	C328.048157,291.404999 335.539368,298.997803 343.039795,306.578400 
	C344.808990,308.366547 346.493439,308.935089 349.207458,308.548431 
	C365.399658,306.241760 379.962555,309.949341 391.957062,321.515228 
	C399.872284,329.147644 407.381622,337.204651 415.381287,344.744110 
	C419.080719,348.230713 419.839874,351.871674 418.096069,356.753052 
	C414.337372,361.361542 410.176178,361.673492 405.341309,358.071564 
	C398.829163,353.220184 398.828552,353.219574 392.942963,359.104950 
	C380.926636,371.120850 368.900238,383.126678 356.900146,395.158752 
	C352.627197,399.443054 352.619995,399.556061 356.903381,403.843109 
	C378.570435,425.528259 400.138611,447.313751 421.965088,468.837616 
	C439.026550,485.662598 467.289093,479.858490 475.995789,457.540985 
	C480.654083,445.600555 479.160339,433.952911 470.606995,423.784302 
	C469.321136,422.255646 467.835266,420.900940 466.638367,419.291718 
	C463.531372,415.114410 462.822723,410.863342 466.540955,406.285950 
z"/>
<path fill="#3DA3A9" opacity="1.000000" stroke="none" 
	d="
M38.718636,120.872139 
	C44.719444,121.983040 47.747746,119.203590 50.395214,114.310738 
	C75.281479,68.317848 113.872955,41.399105 165.503662,34.299442 
	C243.443619,23.582047 317.561340,77.806320 332.127716,155.318802 
	C347.425568,236.723770 296.383148,313.784027 215.378891,331.577881 
	C133.501480,349.563538 51.149685,294.645416 35.852947,212.006119 
	C31.782164,190.014038 32.325649,168.248871 38.039364,146.671478 
	C39.412102,141.487442 38.871777,137.533417 33.976685,134.313293 
	C35.366158,129.712845 36.906673,125.431511 38.718636,120.872139 
z"/>
<path fill="#F6CD61" opacity="1.000000" stroke="none" 
	d="
M466.545380,405.935303 
	C466.890167,406.737549 467.221008,407.553650 466.949036,408.012512 
	C464.084930,412.844818 466.087219,416.297150 469.602051,419.874786 
	C482.248413,432.747253 483.952881,451.364227 474.027771,465.445129 
	C461.337219,483.449463 436.096222,485.581360 420.022186,469.771423 
	C403.767120,453.783447 387.745819,437.557770 371.623474,421.434906 
	C365.268677,415.079926 358.984192,408.652344 352.525146,402.405212 
	C350.514771,400.460785 349.928009,399.367340 352.315643,397.022064 
	C367.393921,382.211334 382.319550,367.243866 397.170166,352.204285 
	C399.218475,350.129974 400.472443,350.092529 402.182770,352.295624 
	C403.093658,353.468933 404.351227,354.366547 405.332611,355.492889 
	C408.826141,359.502197 412.730133,360.257416 417.564392,357.134125 
	C421.712067,361.015533 425.488556,364.903564 429.565369,368.932800 
	C430.842285,369.731934 431.032166,370.790497 430.695587,371.709442 
	C428.960541,376.446564 431.409302,379.602570 434.571838,382.561829 
	C435.896851,383.801697 437.265778,385.025665 438.406891,386.426178 
	C442.296967,391.200531 446.888367,394.165894 453.648804,392.913513 
	C458.036407,397.344543 462.143982,401.563934 466.545380,405.935303 
z"/>
<path fill="#2F210D" opacity="1.000000" stroke="none" 
	d="
M454.088776,392.750366 
	C446.803345,396.257080 445.891174,396.070099 440.091309,390.275879 
	C437.617889,387.804901 435.316833,385.127106 432.638641,382.903107 
	C428.141846,379.168915 426.885712,374.995361 429.908691,369.446228 
	C435.105560,366.998138 439.388763,368.136841 443.077972,372.502533 
	C445.621124,375.511993 448.436615,378.357208 451.463196,380.875824 
	C455.379974,384.135193 455.773987,387.949860 454.088776,392.750366 
z"/>
<path fill="#F5CC60" opacity="1.000000" stroke="none" 
	d="
M370.331940,359.331909 
	C361.148743,368.518799 352.079437,377.325836 343.360352,386.466888 
	C340.526001,389.438477 339.057312,388.958435 336.391968,386.339783 
	C329.734100,379.798401 324.244873,372.795685 322.753448,363.199127 
	C320.478912,348.563599 327.238525,334.135925 340.053650,326.885040 
	C353.165009,319.466522 369.168091,321.025513 380.492401,330.824463 
	C390.326355,339.333832 390.326202,339.333679 381.161163,348.499207 
	C377.634308,352.026337 374.108307,355.554321 370.331940,359.331909 
z"/>
<path fill="#3DA2A9" opacity="1.000000" stroke="none" 
	d="
M308.035614,293.141724 
	C315.387726,299.992737 322.367126,306.899475 329.402649,313.748535 
	C330.748779,315.058929 331.095001,315.963593 329.275940,317.186707 
	C324.529327,320.378265 320.492767,324.351959 317.315033,329.106873 
	C315.933380,331.174255 314.988251,330.710236 313.535889,329.232605 
	C307.230408,322.817291 300.875275,316.449615 294.457672,310.146576 
	C292.910706,308.627197 292.903503,307.624054 294.506714,306.110474 
	C298.980774,301.886505 303.301270,297.499847 308.035614,293.141724 
z"/>
<path fill="#2D210F" opacity="1.000000" stroke="none" 
	d="
M289.530090,251.511200 
	C261.210175,292.815918 222.176422,312.228027 172.721939,308.701599 
	C114.789368,304.570679 66.918564,257.859375 59.856335,200.110046 
	C51.562405,132.288849 96.492821,71.966415 163.999542,60.290043 
	C229.879044,48.895111 295.332123,94.835114 307.038910,160.659042 
	C312.800781,193.056244 307.062897,223.237717 289.530090,251.511200 
z"/>
<path fill="#F9F4E3" opacity="1.000000" stroke="none" 
	d="
M129.844376,281.184937 
	C89.574799,256.704468 70.497063,221.118301 73.198517,174.505722 
	C76.121445,124.071877 118.195457,80.105675 168.519028,73.891037 
	C229.362411,66.377274 282.352142,104.935837 293.699432,164.979904 
	C305.150909,225.575119 260.838379,286.319275 199.629028,294.141968 
	C175.057343,297.282288 151.922440,293.227783 129.844376,281.184937 
z"/>
<path fill="#2F2210" opacity="1.000000" stroke="none" 
	d="
M235.502686,130.490387 
	C224.862518,120.390953 212.604950,114.139839 198.640594,111.126709 
	C193.204971,109.953865 190.662262,106.945625 191.433746,102.817604 
	C192.271042,98.337410 196.038605,96.286255 201.447342,97.470093 
	C227.921631,103.264641 247.950058,117.863091 261.328247,141.471161 
	C264.233765,146.598465 263.627563,150.521927 259.794739,152.779572 
	C255.939438,155.050446 252.070450,153.581787 249.278442,148.531464 
	C245.630096,141.932144 241.144852,136.000336 235.502686,130.490387 
z"/>
<path fill="#312412" opacity="1.000000" stroke="none" 
	d="
M169.210632,111.175575 
	C163.994629,112.442795 159.257065,113.872429 154.639053,115.767853 
	C150.056961,117.648529 146.257401,116.250061 144.576141,112.450096 
	C142.825012,108.492172 144.667236,104.905998 149.554306,102.740013 
	C155.029633,100.313309 160.746597,98.666870 166.595230,97.442329 
	C172.006454,96.309372 175.786697,98.276451 176.695190,102.698822 
	C177.522369,106.725418 175.062500,109.639656 169.210632,111.175575 
z"/>
</svg>